<mxfile host="app.diagrams.net" modified="2023-11-29T18:48:55.765Z" agent="Mozilla/5.0 (Windows NT 10.0; Win64; x64) AppleWebKit/537.36 (KHTML, like Gecko) Chrome/119.0.0.0 Safari/537.36 OPR/105.0.0.0" etag="Wg6ofYKugjOMZ5R6qrTV" version="22.1.4" type="device">
  <diagram name="1 oldal" id="Rs6_arZtTbq6OqlRmlSQ">
    <mxGraphModel dx="5931" dy="1873" grid="1" gridSize="10" guides="1" tooltips="1" connect="1" arrows="1" fold="1" page="1" pageScale="1" pageWidth="827" pageHeight="1169" math="0" shadow="0">
      <root>
        <mxCell id="0" />
        <mxCell id="1" parent="0" />
        <mxCell id="69vFRkAeD7c9XC2ptMdu-1" value="gyartocegek" style="ellipse;whiteSpace=wrap;html=1;" parent="1" vertex="1">
          <mxGeometry x="340" y="30" width="120" height="80" as="geometry" />
        </mxCell>
        <mxCell id="69vFRkAeD7c9XC2ptMdu-2" value="ceg" style="ellipse;shape=doubleEllipse;whiteSpace=wrap;html=1;" parent="1" vertex="1">
          <mxGeometry x="350" y="220" width="100" height="60" as="geometry" />
        </mxCell>
        <mxCell id="69vFRkAeD7c9XC2ptMdu-3" value="telepules" style="ellipse;shape=doubleEllipse;whiteSpace=wrap;html=1;" parent="1" vertex="1">
          <mxGeometry x="1540" y="220" width="100" height="60" as="geometry" />
        </mxCell>
        <mxCell id="69vFRkAeD7c9XC2ptMdu-4" value="termek" style="ellipse;shape=doubleEllipse;whiteSpace=wrap;html=1;" parent="1" vertex="1">
          <mxGeometry x="-750" y="220" width="100" height="60" as="geometry" />
        </mxCell>
        <mxCell id="69vFRkAeD7c9XC2ptMdu-5" value="ceg_termek" style="ellipse;shape=doubleEllipse;whiteSpace=wrap;html=1;" parent="1" vertex="1">
          <mxGeometry x="-220" y="210" width="100" height="60" as="geometry" />
        </mxCell>
        <mxCell id="69vFRkAeD7c9XC2ptMdu-6" value="ceg_telepules" style="ellipse;shape=doubleEllipse;whiteSpace=wrap;html=1;" parent="1" vertex="1">
          <mxGeometry x="860" y="220" width="100" height="60" as="geometry" />
        </mxCell>
        <mxCell id="69vFRkAeD7c9XC2ptMdu-7" value="dolgozo" style="ellipse;shape=doubleEllipse;whiteSpace=wrap;html=1;" parent="1" vertex="1">
          <mxGeometry x="2240" y="220" width="100" height="60" as="geometry" />
        </mxCell>
        <mxCell id="69vFRkAeD7c9XC2ptMdu-8" value="gyartasi&lt;br&gt;Inform치ci칩" style="ellipse;shape=doubleEllipse;whiteSpace=wrap;html=1;" parent="1" vertex="1">
          <mxGeometry x="-1410" y="220" width="100" height="60" as="geometry" />
        </mxCell>
        <mxCell id="69vFRkAeD7c9XC2ptMdu-9" value="&lt;u&gt;cegID&lt;/u&gt;" style="rhombus;whiteSpace=wrap;html=1;" parent="1" vertex="1">
          <mxGeometry x="30" y="290" width="80" height="50" as="geometry" />
        </mxCell>
        <mxCell id="69vFRkAeD7c9XC2ptMdu-10" value="&lt;u&gt;termekID&lt;/u&gt;" style="rhombus;whiteSpace=wrap;html=1;" parent="1" vertex="1">
          <mxGeometry x="-453" y="290" width="80" height="50" as="geometry" />
        </mxCell>
        <mxCell id="69vFRkAeD7c9XC2ptMdu-11" value="&lt;u style=&quot;font-size: 10px;&quot;&gt;gyartasi&lt;br style=&quot;font-size: 10px;&quot;&gt;Inform치ci칩ID&lt;br style=&quot;font-size: 10px;&quot;&gt;&lt;/u&gt;" style="rhombus;whiteSpace=wrap;html=1;fontSize=10;" parent="1" vertex="1">
          <mxGeometry x="-1700" y="300" width="80" height="50" as="geometry" />
        </mxCell>
        <mxCell id="69vFRkAeD7c9XC2ptMdu-12" value="&lt;u&gt;cegREF&lt;/u&gt;" style="rhombus;whiteSpace=wrap;html=1;" parent="1" vertex="1">
          <mxGeometry x="750" y="300" width="80" height="50" as="geometry" />
        </mxCell>
        <mxCell id="69vFRkAeD7c9XC2ptMdu-13" value="&lt;u style=&quot;font-size: 11px;&quot;&gt;telepulesREF&lt;/u&gt;" style="rhombus;whiteSpace=wrap;html=1;fontSize=11;" parent="1" vertex="1">
          <mxGeometry x="990" y="300" width="80" height="50" as="geometry" />
        </mxCell>
        <mxCell id="69vFRkAeD7c9XC2ptMdu-14" value="&lt;u&gt;cegREF&lt;/u&gt;" style="rhombus;whiteSpace=wrap;html=1;" parent="1" vertex="1">
          <mxGeometry x="-120" y="290" width="80" height="50" as="geometry" />
        </mxCell>
        <mxCell id="69vFRkAeD7c9XC2ptMdu-15" value="&lt;u&gt;termekREF&lt;/u&gt;" style="rhombus;whiteSpace=wrap;html=1;" parent="1" vertex="1">
          <mxGeometry x="-300" y="290" width="80" height="50" as="geometry" />
        </mxCell>
        <mxCell id="69vFRkAeD7c9XC2ptMdu-16" value="&lt;u&gt;telepulesID&lt;/u&gt;" style="rhombus;whiteSpace=wrap;html=1;" parent="1" vertex="1">
          <mxGeometry x="1280" y="300" width="80" height="50" as="geometry" />
        </mxCell>
        <mxCell id="69vFRkAeD7c9XC2ptMdu-17" value="&lt;u&gt;dolgozoID&lt;/u&gt;" style="rhombus;whiteSpace=wrap;html=1;" parent="1" vertex="1">
          <mxGeometry x="2510" y="300" width="80" height="50" as="geometry" />
        </mxCell>
        <mxCell id="69vFRkAeD7c9XC2ptMdu-18" value="&lt;u&gt;cegREF&lt;/u&gt;" style="rhombus;whiteSpace=wrap;html=1;" parent="1" vertex="1">
          <mxGeometry x="1940" y="300" width="80" height="50" as="geometry" />
        </mxCell>
        <mxCell id="69vFRkAeD7c9XC2ptMdu-131" style="edgeStyle=elbowEdgeStyle;rounded=0;orthogonalLoop=1;jettySize=auto;html=1;exitX=0.5;exitY=1;exitDx=0;exitDy=0;entryX=0;entryY=1;entryDx=0;entryDy=0;elbow=vertical;dashed=1;fontColor=#000000;" parent="1" source="69vFRkAeD7c9XC2ptMdu-19" target="69vFRkAeD7c9XC2ptMdu-10" edge="1">
          <mxGeometry relative="1" as="geometry">
            <Array as="points">
              <mxPoint x="-770" y="720" />
            </Array>
          </mxGeometry>
        </mxCell>
        <mxCell id="69vFRkAeD7c9XC2ptMdu-19" value="&lt;u style=&quot;font-size: 10px;&quot;&gt;termekREF&lt;br style=&quot;font-size: 10px;&quot;&gt;&lt;/u&gt;" style="rhombus;whiteSpace=wrap;html=1;fontSize=10;" parent="1" vertex="1">
          <mxGeometry x="-1120" y="300" width="80" height="50" as="geometry" />
        </mxCell>
        <mxCell id="69vFRkAeD7c9XC2ptMdu-20" value="nev" style="ellipse;whiteSpace=wrap;html=1;" parent="1" vertex="1">
          <mxGeometry x="290" y="450" width="100" height="60" as="geometry" />
        </mxCell>
        <mxCell id="69vFRkAeD7c9XC2ptMdu-21" value="tipus" style="ellipse;whiteSpace=wrap;html=1;" parent="1" vertex="1">
          <mxGeometry x="160" y="450" width="100" height="60" as="geometry" />
        </mxCell>
        <mxCell id="69vFRkAeD7c9XC2ptMdu-22" value="alapitasIdeje" style="ellipse;whiteSpace=wrap;html=1;" parent="1" vertex="1">
          <mxGeometry x="420" y="450" width="100" height="60" as="geometry" />
        </mxCell>
        <mxCell id="69vFRkAeD7c9XC2ptMdu-23" value="tulajdonosok" style="ellipse;shape=doubleEllipse;whiteSpace=wrap;html=1;" parent="1" vertex="1">
          <mxGeometry x="540" y="450" width="100" height="60" as="geometry" />
        </mxCell>
        <mxCell id="69vFRkAeD7c9XC2ptMdu-24" value="" style="whiteSpace=wrap;html=1;aspect=fixed;" parent="1" vertex="1">
          <mxGeometry x="180" y="580" width="60" height="60" as="geometry" />
        </mxCell>
        <mxCell id="69vFRkAeD7c9XC2ptMdu-25" value="" style="whiteSpace=wrap;html=1;aspect=fixed;" parent="1" vertex="1">
          <mxGeometry x="310" y="580" width="60" height="60" as="geometry" />
        </mxCell>
        <mxCell id="69vFRkAeD7c9XC2ptMdu-26" value="" style="whiteSpace=wrap;html=1;aspect=fixed;" parent="1" vertex="1">
          <mxGeometry x="440" y="580" width="60" height="60" as="geometry" />
        </mxCell>
        <mxCell id="69vFRkAeD7c9XC2ptMdu-27" value="" style="whiteSpace=wrap;html=1;aspect=fixed;" parent="1" vertex="1">
          <mxGeometry x="560" y="580" width="60" height="60" as="geometry" />
        </mxCell>
        <mxCell id="69vFRkAeD7c9XC2ptMdu-28" value="alkalmazottak" style="ellipse;whiteSpace=wrap;html=1;" parent="1" vertex="1">
          <mxGeometry x="860" y="450" width="100" height="60" as="geometry" />
        </mxCell>
        <mxCell id="69vFRkAeD7c9XC2ptMdu-29" value="" style="whiteSpace=wrap;html=1;aspect=fixed;" parent="1" vertex="1">
          <mxGeometry x="880" y="580" width="60" height="60" as="geometry" />
        </mxCell>
        <mxCell id="69vFRkAeD7c9XC2ptMdu-32" value="iranyitoszam" style="ellipse;whiteSpace=wrap;html=1;" parent="1" vertex="1">
          <mxGeometry x="1380" y="430" width="100" height="60" as="geometry" />
        </mxCell>
        <mxCell id="69vFRkAeD7c9XC2ptMdu-33" value="" style="whiteSpace=wrap;html=1;aspect=fixed;" parent="1" vertex="1">
          <mxGeometry x="1400" y="560" width="60" height="60" as="geometry" />
        </mxCell>
        <mxCell id="69vFRkAeD7c9XC2ptMdu-34" value="telepulesNeve" style="ellipse;whiteSpace=wrap;html=1;" parent="1" vertex="1">
          <mxGeometry x="1500" y="430" width="100" height="60" as="geometry" />
        </mxCell>
        <mxCell id="69vFRkAeD7c9XC2ptMdu-35" value="" style="whiteSpace=wrap;html=1;aspect=fixed;" parent="1" vertex="1">
          <mxGeometry x="1520" y="560" width="60" height="60" as="geometry" />
        </mxCell>
        <mxCell id="69vFRkAeD7c9XC2ptMdu-36" value="utca" style="ellipse;whiteSpace=wrap;html=1;" parent="1" vertex="1">
          <mxGeometry x="1610" y="430" width="100" height="60" as="geometry" />
        </mxCell>
        <mxCell id="69vFRkAeD7c9XC2ptMdu-37" value="" style="whiteSpace=wrap;html=1;aspect=fixed;" parent="1" vertex="1">
          <mxGeometry x="1630" y="560" width="60" height="60" as="geometry" />
        </mxCell>
        <mxCell id="69vFRkAeD7c9XC2ptMdu-38" value="haszszam" style="ellipse;whiteSpace=wrap;html=1;" parent="1" vertex="1">
          <mxGeometry x="1720" y="430" width="100" height="60" as="geometry" />
        </mxCell>
        <mxCell id="69vFRkAeD7c9XC2ptMdu-39" value="" style="whiteSpace=wrap;html=1;aspect=fixed;" parent="1" vertex="1">
          <mxGeometry x="1740" y="560" width="60" height="60" as="geometry" />
        </mxCell>
        <mxCell id="69vFRkAeD7c9XC2ptMdu-40" value="dolgozoNeve" style="ellipse;whiteSpace=wrap;html=1;" parent="1" vertex="1">
          <mxGeometry x="2068" y="430" width="100" height="60" as="geometry" />
        </mxCell>
        <mxCell id="69vFRkAeD7c9XC2ptMdu-41" value="" style="whiteSpace=wrap;html=1;aspect=fixed;" parent="1" vertex="1">
          <mxGeometry x="2088" y="560" width="60" height="60" as="geometry" />
        </mxCell>
        <mxCell id="69vFRkAeD7c9XC2ptMdu-42" value="belepesiDatum" style="ellipse;whiteSpace=wrap;html=1;" parent="1" vertex="1">
          <mxGeometry x="2188" y="430" width="100" height="60" as="geometry" />
        </mxCell>
        <mxCell id="69vFRkAeD7c9XC2ptMdu-43" value="" style="whiteSpace=wrap;html=1;aspect=fixed;" parent="1" vertex="1">
          <mxGeometry x="2208" y="560" width="60" height="60" as="geometry" />
        </mxCell>
        <mxCell id="69vFRkAeD7c9XC2ptMdu-44" value="munkakor" style="ellipse;whiteSpace=wrap;html=1;" parent="1" vertex="1">
          <mxGeometry x="2298" y="430" width="100" height="60" as="geometry" />
        </mxCell>
        <mxCell id="69vFRkAeD7c9XC2ptMdu-45" value="" style="whiteSpace=wrap;html=1;aspect=fixed;" parent="1" vertex="1">
          <mxGeometry x="2318" y="560" width="60" height="60" as="geometry" />
        </mxCell>
        <mxCell id="69vFRkAeD7c9XC2ptMdu-46" value="fizetes" style="ellipse;whiteSpace=wrap;html=1;" parent="1" vertex="1">
          <mxGeometry x="2408" y="430" width="100" height="60" as="geometry" />
        </mxCell>
        <mxCell id="69vFRkAeD7c9XC2ptMdu-47" value="" style="whiteSpace=wrap;html=1;aspect=fixed;" parent="1" vertex="1">
          <mxGeometry x="2428" y="560" width="60" height="60" as="geometry" />
        </mxCell>
        <mxCell id="69vFRkAeD7c9XC2ptMdu-48" value="eladasiAr" style="ellipse;whiteSpace=wrap;html=1;" parent="1" vertex="1">
          <mxGeometry x="-810" y="420" width="100" height="60" as="geometry" />
        </mxCell>
        <mxCell id="69vFRkAeD7c9XC2ptMdu-49" value="termekNeve" style="ellipse;whiteSpace=wrap;html=1;" parent="1" vertex="1">
          <mxGeometry x="-940" y="420" width="100" height="60" as="geometry" />
        </mxCell>
        <mxCell id="69vFRkAeD7c9XC2ptMdu-50" value="" style="whiteSpace=wrap;html=1;aspect=fixed;" parent="1" vertex="1">
          <mxGeometry x="-920" y="550" width="60" height="60" as="geometry" />
        </mxCell>
        <mxCell id="69vFRkAeD7c9XC2ptMdu-51" value="" style="whiteSpace=wrap;html=1;aspect=fixed;" parent="1" vertex="1">
          <mxGeometry x="-790" y="550" width="60" height="60" as="geometry" />
        </mxCell>
        <mxCell id="69vFRkAeD7c9XC2ptMdu-52" value="alkatreszek" style="ellipse;shape=doubleEllipse;whiteSpace=wrap;html=1;" parent="1" vertex="1">
          <mxGeometry x="-680" y="420" width="100" height="60" as="geometry" />
        </mxCell>
        <mxCell id="69vFRkAeD7c9XC2ptMdu-53" value="" style="whiteSpace=wrap;html=1;aspect=fixed;" parent="1" vertex="1">
          <mxGeometry x="-660" y="550" width="60" height="60" as="geometry" />
        </mxCell>
        <mxCell id="69vFRkAeD7c9XC2ptMdu-54" value="vevok" style="ellipse;shape=doubleEllipse;whiteSpace=wrap;html=1;" parent="1" vertex="1">
          <mxGeometry x="-560" y="420" width="100" height="60" as="geometry" />
        </mxCell>
        <mxCell id="69vFRkAeD7c9XC2ptMdu-55" value="" style="whiteSpace=wrap;html=1;aspect=fixed;" parent="1" vertex="1">
          <mxGeometry x="-540" y="550" width="60" height="60" as="geometry" />
        </mxCell>
        <mxCell id="69vFRkAeD7c9XC2ptMdu-56" value="gyartasiIdo" style="ellipse;whiteSpace=wrap;html=1;" parent="1" vertex="1">
          <mxGeometry x="-1465" y="420" width="100" height="60" as="geometry" />
        </mxCell>
        <mxCell id="69vFRkAeD7c9XC2ptMdu-57" value="gyartasiKoltseg" style="ellipse;whiteSpace=wrap;html=1;" parent="1" vertex="1">
          <mxGeometry x="-1595" y="420" width="100" height="60" as="geometry" />
        </mxCell>
        <mxCell id="69vFRkAeD7c9XC2ptMdu-58" value="" style="whiteSpace=wrap;html=1;aspect=fixed;" parent="1" vertex="1">
          <mxGeometry x="-1575" y="550" width="60" height="60" as="geometry" />
        </mxCell>
        <mxCell id="69vFRkAeD7c9XC2ptMdu-59" value="" style="whiteSpace=wrap;html=1;aspect=fixed;" parent="1" vertex="1">
          <mxGeometry x="-1445" y="550" width="60" height="60" as="geometry" />
        </mxCell>
        <mxCell id="69vFRkAeD7c9XC2ptMdu-60" value="dolgozokSzama" style="ellipse;whiteSpace=wrap;html=1;" parent="1" vertex="1">
          <mxGeometry x="-1225" y="420" width="100" height="60" as="geometry" />
        </mxCell>
        <mxCell id="69vFRkAeD7c9XC2ptMdu-61" value="selejtekSzama" style="ellipse;whiteSpace=wrap;html=1;" parent="1" vertex="1">
          <mxGeometry x="-1355" y="420" width="100" height="60" as="geometry" />
        </mxCell>
        <mxCell id="69vFRkAeD7c9XC2ptMdu-62" value="" style="whiteSpace=wrap;html=1;aspect=fixed;" parent="1" vertex="1">
          <mxGeometry x="-1335" y="550" width="60" height="60" as="geometry" />
        </mxCell>
        <mxCell id="69vFRkAeD7c9XC2ptMdu-63" value="" style="whiteSpace=wrap;html=1;aspect=fixed;" parent="1" vertex="1">
          <mxGeometry x="-1205" y="550" width="60" height="60" as="geometry" />
        </mxCell>
        <mxCell id="69vFRkAeD7c9XC2ptMdu-68" value="" style="endArrow=none;html=1;rounded=0;entryX=0.5;entryY=1;entryDx=0;entryDy=0;exitX=0.5;exitY=0;exitDx=0;exitDy=0;strokeWidth=1;fontColor=#000000;" parent="1" source="69vFRkAeD7c9XC2ptMdu-60" target="69vFRkAeD7c9XC2ptMdu-8" edge="1">
          <mxGeometry width="50" height="50" relative="1" as="geometry">
            <mxPoint x="-980" y="370" as="sourcePoint" />
            <mxPoint x="-930" y="320" as="targetPoint" />
          </mxGeometry>
        </mxCell>
        <mxCell id="69vFRkAeD7c9XC2ptMdu-69" value="" style="endArrow=none;html=1;rounded=0;entryX=0.5;entryY=1;entryDx=0;entryDy=0;exitX=0.5;exitY=0;exitDx=0;exitDy=0;strokeWidth=1;fontColor=#000000;" parent="1" source="69vFRkAeD7c9XC2ptMdu-61" target="69vFRkAeD7c9XC2ptMdu-8" edge="1">
          <mxGeometry width="50" height="50" relative="1" as="geometry">
            <mxPoint x="-1165" y="430" as="sourcePoint" />
            <mxPoint x="-1350" y="290" as="targetPoint" />
          </mxGeometry>
        </mxCell>
        <mxCell id="69vFRkAeD7c9XC2ptMdu-70" value="" style="endArrow=none;html=1;rounded=0;entryX=0.5;entryY=1;entryDx=0;entryDy=0;exitX=0.5;exitY=0;exitDx=0;exitDy=0;strokeWidth=1;fontColor=#000000;" parent="1" source="69vFRkAeD7c9XC2ptMdu-56" target="69vFRkAeD7c9XC2ptMdu-8" edge="1">
          <mxGeometry width="50" height="50" relative="1" as="geometry">
            <mxPoint x="-1295" y="430" as="sourcePoint" />
            <mxPoint x="-1350" y="290" as="targetPoint" />
          </mxGeometry>
        </mxCell>
        <mxCell id="69vFRkAeD7c9XC2ptMdu-71" value="" style="endArrow=none;html=1;rounded=0;entryX=0.5;entryY=1;entryDx=0;entryDy=0;exitX=0.5;exitY=0;exitDx=0;exitDy=0;strokeWidth=1;fontColor=#000000;" parent="1" source="69vFRkAeD7c9XC2ptMdu-57" target="69vFRkAeD7c9XC2ptMdu-8" edge="1">
          <mxGeometry width="50" height="50" relative="1" as="geometry">
            <mxPoint x="-1285" y="440" as="sourcePoint" />
            <mxPoint x="-1340" y="300" as="targetPoint" />
          </mxGeometry>
        </mxCell>
        <mxCell id="69vFRkAeD7c9XC2ptMdu-72" value="" style="endArrow=none;html=1;rounded=0;entryX=0.5;entryY=1;entryDx=0;entryDy=0;strokeWidth=1;fontColor=#000000;" parent="1" source="69vFRkAeD7c9XC2ptMdu-58" target="69vFRkAeD7c9XC2ptMdu-57" edge="1">
          <mxGeometry width="50" height="50" relative="1" as="geometry">
            <mxPoint x="-1535" y="430" as="sourcePoint" />
            <mxPoint x="-1350" y="290" as="targetPoint" />
          </mxGeometry>
        </mxCell>
        <mxCell id="69vFRkAeD7c9XC2ptMdu-73" value="" style="endArrow=none;html=1;rounded=0;entryX=0.5;entryY=1;entryDx=0;entryDy=0;strokeWidth=1;exitX=0.5;exitY=0;exitDx=0;exitDy=0;fontColor=#000000;" parent="1" source="69vFRkAeD7c9XC2ptMdu-59" target="69vFRkAeD7c9XC2ptMdu-56" edge="1">
          <mxGeometry width="50" height="50" relative="1" as="geometry">
            <mxPoint x="-1535" y="560" as="sourcePoint" />
            <mxPoint x="-1535" y="490" as="targetPoint" />
          </mxGeometry>
        </mxCell>
        <mxCell id="69vFRkAeD7c9XC2ptMdu-74" value="" style="endArrow=none;html=1;rounded=0;entryX=0.5;entryY=1;entryDx=0;entryDy=0;strokeWidth=1;exitX=0.5;exitY=0;exitDx=0;exitDy=0;fontColor=#000000;" parent="1" source="69vFRkAeD7c9XC2ptMdu-62" target="69vFRkAeD7c9XC2ptMdu-61" edge="1">
          <mxGeometry width="50" height="50" relative="1" as="geometry">
            <mxPoint x="-1525" y="570" as="sourcePoint" />
            <mxPoint x="-1525" y="500" as="targetPoint" />
          </mxGeometry>
        </mxCell>
        <mxCell id="69vFRkAeD7c9XC2ptMdu-75" value="" style="endArrow=none;html=1;rounded=0;entryX=0.5;entryY=1;entryDx=0;entryDy=0;strokeWidth=1;exitX=0.5;exitY=0;exitDx=0;exitDy=0;fontColor=#000000;" parent="1" source="69vFRkAeD7c9XC2ptMdu-63" target="69vFRkAeD7c9XC2ptMdu-60" edge="1">
          <mxGeometry width="50" height="50" relative="1" as="geometry">
            <mxPoint x="-1515" y="580" as="sourcePoint" />
            <mxPoint x="-1515" y="510" as="targetPoint" />
          </mxGeometry>
        </mxCell>
        <mxCell id="69vFRkAeD7c9XC2ptMdu-76" value="" style="endArrow=none;html=1;rounded=0;entryX=0.5;entryY=1;entryDx=0;entryDy=0;strokeWidth=1;exitX=0.5;exitY=0;exitDx=0;exitDy=0;fontColor=#000000;" parent="1" source="69vFRkAeD7c9XC2ptMdu-49" target="69vFRkAeD7c9XC2ptMdu-4" edge="1">
          <mxGeometry width="50" height="50" relative="1" as="geometry">
            <mxPoint x="-1505" y="590" as="sourcePoint" />
            <mxPoint x="-1505" y="520" as="targetPoint" />
          </mxGeometry>
        </mxCell>
        <mxCell id="69vFRkAeD7c9XC2ptMdu-78" value="" style="endArrow=none;html=1;rounded=0;entryX=0.5;entryY=1;entryDx=0;entryDy=0;strokeWidth=1;exitX=0.5;exitY=0;exitDx=0;exitDy=0;fontColor=#000000;" parent="1" source="69vFRkAeD7c9XC2ptMdu-48" target="69vFRkAeD7c9XC2ptMdu-4" edge="1">
          <mxGeometry width="50" height="50" relative="1" as="geometry">
            <mxPoint x="-880" y="430" as="sourcePoint" />
            <mxPoint x="-690" y="290" as="targetPoint" />
          </mxGeometry>
        </mxCell>
        <mxCell id="69vFRkAeD7c9XC2ptMdu-79" value="" style="endArrow=none;html=1;rounded=0;entryX=0.5;entryY=1;entryDx=0;entryDy=0;strokeWidth=1;exitX=0.5;exitY=0;exitDx=0;exitDy=0;fontColor=#000000;" parent="1" source="69vFRkAeD7c9XC2ptMdu-52" target="69vFRkAeD7c9XC2ptMdu-4" edge="1">
          <mxGeometry width="50" height="50" relative="1" as="geometry">
            <mxPoint x="-870" y="440" as="sourcePoint" />
            <mxPoint x="-680" y="300" as="targetPoint" />
          </mxGeometry>
        </mxCell>
        <mxCell id="69vFRkAeD7c9XC2ptMdu-80" value="" style="endArrow=none;html=1;rounded=0;entryX=0.5;entryY=1;entryDx=0;entryDy=0;strokeWidth=1;exitX=0.5;exitY=0;exitDx=0;exitDy=0;fontColor=#000000;" parent="1" source="69vFRkAeD7c9XC2ptMdu-54" target="69vFRkAeD7c9XC2ptMdu-4" edge="1">
          <mxGeometry width="50" height="50" relative="1" as="geometry">
            <mxPoint x="-860" y="450" as="sourcePoint" />
            <mxPoint x="-670" y="310" as="targetPoint" />
          </mxGeometry>
        </mxCell>
        <mxCell id="69vFRkAeD7c9XC2ptMdu-81" value="" style="endArrow=none;html=1;rounded=0;entryX=0.5;entryY=1;entryDx=0;entryDy=0;strokeWidth=1;exitX=0.5;exitY=0;exitDx=0;exitDy=0;fontColor=#000000;" parent="1" source="69vFRkAeD7c9XC2ptMdu-50" target="69vFRkAeD7c9XC2ptMdu-49" edge="1">
          <mxGeometry width="50" height="50" relative="1" as="geometry">
            <mxPoint x="-850" y="460" as="sourcePoint" />
            <mxPoint x="-660" y="320" as="targetPoint" />
          </mxGeometry>
        </mxCell>
        <mxCell id="69vFRkAeD7c9XC2ptMdu-82" value="" style="endArrow=none;html=1;rounded=0;entryX=0.5;entryY=1;entryDx=0;entryDy=0;strokeWidth=1;exitX=0.5;exitY=0;exitDx=0;exitDy=0;fontColor=#000000;" parent="1" source="69vFRkAeD7c9XC2ptMdu-51" target="69vFRkAeD7c9XC2ptMdu-48" edge="1">
          <mxGeometry width="50" height="50" relative="1" as="geometry">
            <mxPoint x="-880" y="560" as="sourcePoint" />
            <mxPoint x="-880" y="490" as="targetPoint" />
          </mxGeometry>
        </mxCell>
        <mxCell id="69vFRkAeD7c9XC2ptMdu-83" value="" style="endArrow=none;html=1;rounded=0;entryX=0.5;entryY=1;entryDx=0;entryDy=0;strokeWidth=1;exitX=0.5;exitY=0;exitDx=0;exitDy=0;fontColor=#000000;" parent="1" source="69vFRkAeD7c9XC2ptMdu-53" target="69vFRkAeD7c9XC2ptMdu-52" edge="1">
          <mxGeometry width="50" height="50" relative="1" as="geometry">
            <mxPoint x="-870" y="570" as="sourcePoint" />
            <mxPoint x="-870" y="500" as="targetPoint" />
          </mxGeometry>
        </mxCell>
        <mxCell id="69vFRkAeD7c9XC2ptMdu-84" value="" style="endArrow=none;html=1;rounded=0;entryX=0.5;entryY=1;entryDx=0;entryDy=0;strokeWidth=1;exitX=0.5;exitY=0;exitDx=0;exitDy=0;fontColor=#000000;" parent="1" source="69vFRkAeD7c9XC2ptMdu-55" target="69vFRkAeD7c9XC2ptMdu-54" edge="1">
          <mxGeometry width="50" height="50" relative="1" as="geometry">
            <mxPoint x="-860" y="580" as="sourcePoint" />
            <mxPoint x="-860" y="510" as="targetPoint" />
          </mxGeometry>
        </mxCell>
        <mxCell id="69vFRkAeD7c9XC2ptMdu-85" value="" style="endArrow=none;html=1;rounded=0;entryX=0;entryY=1;entryDx=0;entryDy=0;exitX=0.5;exitY=0;exitDx=0;exitDy=0;strokeWidth=1;fontColor=#000000;" parent="1" source="69vFRkAeD7c9XC2ptMdu-11" target="69vFRkAeD7c9XC2ptMdu-8" edge="1">
          <mxGeometry width="50" height="50" relative="1" as="geometry">
            <mxPoint x="-1535" y="430" as="sourcePoint" />
            <mxPoint x="-1350" y="290" as="targetPoint" />
          </mxGeometry>
        </mxCell>
        <mxCell id="69vFRkAeD7c9XC2ptMdu-86" value="" style="endArrow=none;html=1;rounded=0;entryX=1;entryY=1;entryDx=0;entryDy=0;exitX=0.5;exitY=0;exitDx=0;exitDy=0;strokeWidth=1;fontColor=#000000;" parent="1" source="69vFRkAeD7c9XC2ptMdu-19" target="69vFRkAeD7c9XC2ptMdu-8" edge="1">
          <mxGeometry width="50" height="50" relative="1" as="geometry">
            <mxPoint x="-1525" y="440" as="sourcePoint" />
            <mxPoint x="-1340" y="300" as="targetPoint" />
          </mxGeometry>
        </mxCell>
        <mxCell id="69vFRkAeD7c9XC2ptMdu-87" value="" style="endArrow=none;html=1;rounded=0;entryX=1;entryY=1;entryDx=0;entryDy=0;strokeWidth=1;exitX=0.5;exitY=0;exitDx=0;exitDy=0;fontColor=#000000;" parent="1" source="69vFRkAeD7c9XC2ptMdu-10" target="69vFRkAeD7c9XC2ptMdu-4" edge="1">
          <mxGeometry width="50" height="50" relative="1" as="geometry">
            <mxPoint x="-500" y="430" as="sourcePoint" />
            <mxPoint x="-690" y="290" as="targetPoint" />
          </mxGeometry>
        </mxCell>
        <mxCell id="69vFRkAeD7c9XC2ptMdu-88" value="" style="endArrow=none;html=1;rounded=0;entryX=0;entryY=1;entryDx=0;entryDy=0;strokeWidth=1;exitX=0.5;exitY=0;exitDx=0;exitDy=0;fontColor=#000000;" parent="1" source="69vFRkAeD7c9XC2ptMdu-15" target="69vFRkAeD7c9XC2ptMdu-5" edge="1">
          <mxGeometry width="50" height="50" relative="1" as="geometry">
            <mxPoint x="-260" y="300" as="sourcePoint" />
            <mxPoint x="-680" y="300" as="targetPoint" />
          </mxGeometry>
        </mxCell>
        <mxCell id="69vFRkAeD7c9XC2ptMdu-89" value="" style="endArrow=none;html=1;rounded=0;entryX=1;entryY=1;entryDx=0;entryDy=0;strokeWidth=1;exitX=0.5;exitY=0;exitDx=0;exitDy=0;fontColor=#000000;" parent="1" source="69vFRkAeD7c9XC2ptMdu-14" target="69vFRkAeD7c9XC2ptMdu-5" edge="1">
          <mxGeometry width="50" height="50" relative="1" as="geometry">
            <mxPoint x="-480" y="450" as="sourcePoint" />
            <mxPoint x="-670" y="310" as="targetPoint" />
          </mxGeometry>
        </mxCell>
        <mxCell id="69vFRkAeD7c9XC2ptMdu-90" value="" style="endArrow=none;html=1;rounded=0;entryX=0.5;entryY=0;entryDx=0;entryDy=0;strokeWidth=1;exitX=0;exitY=1;exitDx=0;exitDy=0;fontColor=#000000;" parent="1" source="69vFRkAeD7c9XC2ptMdu-2" target="69vFRkAeD7c9XC2ptMdu-9" edge="1">
          <mxGeometry width="50" height="50" relative="1" as="geometry">
            <mxPoint x="-70" y="300" as="sourcePoint" />
            <mxPoint x="-125" y="271" as="targetPoint" />
          </mxGeometry>
        </mxCell>
        <mxCell id="69vFRkAeD7c9XC2ptMdu-91" value="" style="endArrow=none;html=1;rounded=0;entryX=0.5;entryY=0;entryDx=0;entryDy=0;strokeWidth=1;exitX=0.5;exitY=1;exitDx=0;exitDy=0;fontColor=#000000;" parent="1" source="69vFRkAeD7c9XC2ptMdu-2" target="69vFRkAeD7c9XC2ptMdu-21" edge="1">
          <mxGeometry width="50" height="50" relative="1" as="geometry">
            <mxPoint x="-60" y="310" as="sourcePoint" />
            <mxPoint x="-115" y="281" as="targetPoint" />
          </mxGeometry>
        </mxCell>
        <mxCell id="69vFRkAeD7c9XC2ptMdu-92" value="" style="endArrow=none;html=1;rounded=0;entryX=0.5;entryY=0;entryDx=0;entryDy=0;strokeWidth=1;exitX=0.5;exitY=1;exitDx=0;exitDy=0;fontColor=#000000;" parent="1" source="69vFRkAeD7c9XC2ptMdu-2" target="69vFRkAeD7c9XC2ptMdu-20" edge="1">
          <mxGeometry width="50" height="50" relative="1" as="geometry">
            <mxPoint x="410" y="290" as="sourcePoint" />
            <mxPoint x="220" y="460" as="targetPoint" />
          </mxGeometry>
        </mxCell>
        <mxCell id="69vFRkAeD7c9XC2ptMdu-93" value="" style="endArrow=none;html=1;rounded=0;entryX=0.5;entryY=0;entryDx=0;entryDy=0;strokeWidth=1;exitX=0.5;exitY=1;exitDx=0;exitDy=0;fontColor=#000000;" parent="1" source="69vFRkAeD7c9XC2ptMdu-2" target="69vFRkAeD7c9XC2ptMdu-22" edge="1">
          <mxGeometry width="50" height="50" relative="1" as="geometry">
            <mxPoint x="420" y="300" as="sourcePoint" />
            <mxPoint x="230" y="470" as="targetPoint" />
          </mxGeometry>
        </mxCell>
        <mxCell id="69vFRkAeD7c9XC2ptMdu-94" value="" style="endArrow=none;html=1;rounded=0;entryX=0.5;entryY=0;entryDx=0;entryDy=0;strokeWidth=1;exitX=0.5;exitY=1;exitDx=0;exitDy=0;fontColor=#000000;" parent="1" source="69vFRkAeD7c9XC2ptMdu-2" target="69vFRkAeD7c9XC2ptMdu-23" edge="1">
          <mxGeometry width="50" height="50" relative="1" as="geometry">
            <mxPoint x="430" y="310" as="sourcePoint" />
            <mxPoint x="240" y="480" as="targetPoint" />
          </mxGeometry>
        </mxCell>
        <mxCell id="69vFRkAeD7c9XC2ptMdu-95" value="" style="endArrow=none;html=1;rounded=0;entryX=0.5;entryY=0;entryDx=0;entryDy=0;strokeWidth=1;exitX=0.5;exitY=1;exitDx=0;exitDy=0;fontColor=#000000;" parent="1" source="69vFRkAeD7c9XC2ptMdu-21" target="69vFRkAeD7c9XC2ptMdu-24" edge="1">
          <mxGeometry width="50" height="50" relative="1" as="geometry">
            <mxPoint x="440" y="320" as="sourcePoint" />
            <mxPoint x="250" y="490" as="targetPoint" />
          </mxGeometry>
        </mxCell>
        <mxCell id="69vFRkAeD7c9XC2ptMdu-96" value="" style="endArrow=none;html=1;rounded=0;entryX=0.5;entryY=0;entryDx=0;entryDy=0;strokeWidth=1;exitX=0.5;exitY=1;exitDx=0;exitDy=0;fontColor=#000000;" parent="1" source="69vFRkAeD7c9XC2ptMdu-20" target="69vFRkAeD7c9XC2ptMdu-25" edge="1">
          <mxGeometry width="50" height="50" relative="1" as="geometry">
            <mxPoint x="220" y="520" as="sourcePoint" />
            <mxPoint x="220" y="590" as="targetPoint" />
          </mxGeometry>
        </mxCell>
        <mxCell id="69vFRkAeD7c9XC2ptMdu-97" value="" style="endArrow=none;html=1;rounded=0;entryX=0.5;entryY=0;entryDx=0;entryDy=0;strokeWidth=1;exitX=0.5;exitY=1;exitDx=0;exitDy=0;fontColor=#000000;" parent="1" source="69vFRkAeD7c9XC2ptMdu-22" target="69vFRkAeD7c9XC2ptMdu-26" edge="1">
          <mxGeometry width="50" height="50" relative="1" as="geometry">
            <mxPoint x="230" y="530" as="sourcePoint" />
            <mxPoint x="230" y="600" as="targetPoint" />
          </mxGeometry>
        </mxCell>
        <mxCell id="69vFRkAeD7c9XC2ptMdu-98" value="" style="endArrow=none;html=1;rounded=0;entryX=0.5;entryY=0;entryDx=0;entryDy=0;strokeWidth=1;exitX=0.5;exitY=1;exitDx=0;exitDy=0;fontColor=#000000;" parent="1" source="69vFRkAeD7c9XC2ptMdu-23" target="69vFRkAeD7c9XC2ptMdu-27" edge="1">
          <mxGeometry width="50" height="50" relative="1" as="geometry">
            <mxPoint x="240" y="540" as="sourcePoint" />
            <mxPoint x="240" y="610" as="targetPoint" />
          </mxGeometry>
        </mxCell>
        <mxCell id="69vFRkAeD7c9XC2ptMdu-99" value="" style="endArrow=none;html=1;rounded=0;entryX=0.5;entryY=0;entryDx=0;entryDy=0;strokeWidth=1;exitX=0;exitY=1;exitDx=0;exitDy=0;fontColor=#000000;" parent="1" source="69vFRkAeD7c9XC2ptMdu-6" target="69vFRkAeD7c9XC2ptMdu-12" edge="1">
          <mxGeometry width="50" height="50" relative="1" as="geometry">
            <mxPoint x="410" y="290" as="sourcePoint" />
            <mxPoint x="600" y="460" as="targetPoint" />
          </mxGeometry>
        </mxCell>
        <mxCell id="69vFRkAeD7c9XC2ptMdu-100" value="" style="endArrow=none;html=1;rounded=0;entryX=0.5;entryY=0;entryDx=0;entryDy=0;strokeWidth=1;exitX=1;exitY=1;exitDx=0;exitDy=0;fontColor=#000000;" parent="1" source="69vFRkAeD7c9XC2ptMdu-6" target="69vFRkAeD7c9XC2ptMdu-13" edge="1">
          <mxGeometry width="50" height="50" relative="1" as="geometry">
            <mxPoint x="420" y="300" as="sourcePoint" />
            <mxPoint x="610" y="470" as="targetPoint" />
          </mxGeometry>
        </mxCell>
        <mxCell id="69vFRkAeD7c9XC2ptMdu-101" value="" style="endArrow=none;html=1;rounded=0;entryX=0.5;entryY=0;entryDx=0;entryDy=0;strokeWidth=1;exitX=0.5;exitY=1;exitDx=0;exitDy=0;fontColor=#000000;" parent="1" source="69vFRkAeD7c9XC2ptMdu-6" target="69vFRkAeD7c9XC2ptMdu-28" edge="1">
          <mxGeometry width="50" height="50" relative="1" as="geometry">
            <mxPoint x="955" y="281" as="sourcePoint" />
            <mxPoint x="1040" y="310" as="targetPoint" />
          </mxGeometry>
        </mxCell>
        <mxCell id="69vFRkAeD7c9XC2ptMdu-102" value="" style="endArrow=none;html=1;rounded=0;strokeWidth=1;exitX=0.5;exitY=1;exitDx=0;exitDy=0;fontColor=#000000;" parent="1" source="69vFRkAeD7c9XC2ptMdu-28" target="69vFRkAeD7c9XC2ptMdu-29" edge="1">
          <mxGeometry width="50" height="50" relative="1" as="geometry">
            <mxPoint x="920" y="290" as="sourcePoint" />
            <mxPoint x="920" y="460" as="targetPoint" />
          </mxGeometry>
        </mxCell>
        <mxCell id="69vFRkAeD7c9XC2ptMdu-103" value="" style="endArrow=none;html=1;rounded=0;entryX=0.5;entryY=0;entryDx=0;entryDy=0;strokeWidth=1;exitX=0;exitY=1;exitDx=0;exitDy=0;fontColor=#000000;" parent="1" source="69vFRkAeD7c9XC2ptMdu-3" target="69vFRkAeD7c9XC2ptMdu-16" edge="1">
          <mxGeometry width="50" height="50" relative="1" as="geometry">
            <mxPoint x="930" y="300" as="sourcePoint" />
            <mxPoint x="930" y="470" as="targetPoint" />
          </mxGeometry>
        </mxCell>
        <mxCell id="69vFRkAeD7c9XC2ptMdu-104" value="" style="endArrow=none;html=1;rounded=0;entryX=0.5;entryY=0;entryDx=0;entryDy=0;strokeWidth=1;exitX=0.5;exitY=1;exitDx=0;exitDy=0;fontColor=#000000;" parent="1" source="69vFRkAeD7c9XC2ptMdu-3" target="69vFRkAeD7c9XC2ptMdu-32" edge="1">
          <mxGeometry width="50" height="50" relative="1" as="geometry">
            <mxPoint x="940" y="310" as="sourcePoint" />
            <mxPoint x="940" y="480" as="targetPoint" />
          </mxGeometry>
        </mxCell>
        <mxCell id="69vFRkAeD7c9XC2ptMdu-105" value="" style="endArrow=none;html=1;rounded=0;entryX=0.5;entryY=0;entryDx=0;entryDy=0;strokeWidth=1;exitX=0.5;exitY=1;exitDx=0;exitDy=0;fontColor=#000000;" parent="1" source="69vFRkAeD7c9XC2ptMdu-3" target="69vFRkAeD7c9XC2ptMdu-34" edge="1">
          <mxGeometry width="50" height="50" relative="1" as="geometry">
            <mxPoint x="1600" y="290" as="sourcePoint" />
            <mxPoint x="1440" y="440" as="targetPoint" />
          </mxGeometry>
        </mxCell>
        <mxCell id="69vFRkAeD7c9XC2ptMdu-106" value="" style="endArrow=none;html=1;rounded=0;entryX=0.5;entryY=0;entryDx=0;entryDy=0;strokeWidth=1;exitX=0.5;exitY=1;exitDx=0;exitDy=0;fontColor=#000000;" parent="1" source="69vFRkAeD7c9XC2ptMdu-3" target="69vFRkAeD7c9XC2ptMdu-36" edge="1">
          <mxGeometry width="50" height="50" relative="1" as="geometry">
            <mxPoint x="1610" y="300" as="sourcePoint" />
            <mxPoint x="1450" y="450" as="targetPoint" />
          </mxGeometry>
        </mxCell>
        <mxCell id="69vFRkAeD7c9XC2ptMdu-107" value="" style="endArrow=none;html=1;rounded=0;entryX=0.5;entryY=0;entryDx=0;entryDy=0;strokeWidth=1;exitX=0.5;exitY=1;exitDx=0;exitDy=0;fontColor=#000000;" parent="1" source="69vFRkAeD7c9XC2ptMdu-3" target="69vFRkAeD7c9XC2ptMdu-38" edge="1">
          <mxGeometry width="50" height="50" relative="1" as="geometry">
            <mxPoint x="1620" y="310" as="sourcePoint" />
            <mxPoint x="1460" y="460" as="targetPoint" />
          </mxGeometry>
        </mxCell>
        <mxCell id="69vFRkAeD7c9XC2ptMdu-108" value="" style="endArrow=none;html=1;rounded=0;entryX=0.5;entryY=0;entryDx=0;entryDy=0;strokeWidth=1;exitX=0.5;exitY=1;exitDx=0;exitDy=0;fontColor=#000000;" parent="1" source="69vFRkAeD7c9XC2ptMdu-32" target="69vFRkAeD7c9XC2ptMdu-33" edge="1">
          <mxGeometry width="50" height="50" relative="1" as="geometry">
            <mxPoint x="1630" y="320" as="sourcePoint" />
            <mxPoint x="1470" y="470" as="targetPoint" />
          </mxGeometry>
        </mxCell>
        <mxCell id="69vFRkAeD7c9XC2ptMdu-109" value="" style="endArrow=none;html=1;rounded=0;entryX=0.5;entryY=0;entryDx=0;entryDy=0;strokeWidth=1;exitX=0.5;exitY=1;exitDx=0;exitDy=0;fontColor=#000000;" parent="1" source="69vFRkAeD7c9XC2ptMdu-34" target="69vFRkAeD7c9XC2ptMdu-35" edge="1">
          <mxGeometry width="50" height="50" relative="1" as="geometry">
            <mxPoint x="1440" y="500" as="sourcePoint" />
            <mxPoint x="1440" y="570" as="targetPoint" />
          </mxGeometry>
        </mxCell>
        <mxCell id="69vFRkAeD7c9XC2ptMdu-110" value="" style="endArrow=none;html=1;rounded=0;entryX=0.5;entryY=0;entryDx=0;entryDy=0;strokeWidth=1;exitX=0.5;exitY=1;exitDx=0;exitDy=0;fontColor=#000000;" parent="1" source="69vFRkAeD7c9XC2ptMdu-36" target="69vFRkAeD7c9XC2ptMdu-37" edge="1">
          <mxGeometry width="50" height="50" relative="1" as="geometry">
            <mxPoint x="1450" y="510" as="sourcePoint" />
            <mxPoint x="1450" y="580" as="targetPoint" />
          </mxGeometry>
        </mxCell>
        <mxCell id="69vFRkAeD7c9XC2ptMdu-111" value="" style="endArrow=none;html=1;rounded=0;strokeWidth=1;exitX=0.5;exitY=1;exitDx=0;exitDy=0;fontColor=#000000;" parent="1" source="69vFRkAeD7c9XC2ptMdu-38" target="69vFRkAeD7c9XC2ptMdu-39" edge="1">
          <mxGeometry width="50" height="50" relative="1" as="geometry">
            <mxPoint x="1460" y="520" as="sourcePoint" />
            <mxPoint x="1460" y="590" as="targetPoint" />
          </mxGeometry>
        </mxCell>
        <mxCell id="69vFRkAeD7c9XC2ptMdu-113" value="" style="endArrow=none;html=1;rounded=0;strokeWidth=1;exitX=0;exitY=1;exitDx=0;exitDy=0;entryX=0.5;entryY=0;entryDx=0;entryDy=0;fontColor=#000000;" parent="1" source="69vFRkAeD7c9XC2ptMdu-7" target="69vFRkAeD7c9XC2ptMdu-18" edge="1">
          <mxGeometry width="50" height="50" relative="1" as="geometry">
            <mxPoint x="1780" y="500" as="sourcePoint" />
            <mxPoint x="1780" y="570" as="targetPoint" />
          </mxGeometry>
        </mxCell>
        <mxCell id="69vFRkAeD7c9XC2ptMdu-114" value="" style="endArrow=none;html=1;rounded=0;strokeWidth=1;exitX=1;exitY=1;exitDx=0;exitDy=0;entryX=0.5;entryY=0;entryDx=0;entryDy=0;fontColor=#000000;" parent="1" source="69vFRkAeD7c9XC2ptMdu-7" target="69vFRkAeD7c9XC2ptMdu-17" edge="1">
          <mxGeometry width="50" height="50" relative="1" as="geometry">
            <mxPoint x="2300" y="290" as="sourcePoint" />
            <mxPoint x="1990" y="310" as="targetPoint" />
          </mxGeometry>
        </mxCell>
        <mxCell id="69vFRkAeD7c9XC2ptMdu-115" value="" style="endArrow=none;html=1;rounded=0;strokeWidth=1;entryX=0.5;entryY=0;entryDx=0;entryDy=0;fontColor=#000000;" parent="1" target="69vFRkAeD7c9XC2ptMdu-40" edge="1">
          <mxGeometry width="50" height="50" relative="1" as="geometry">
            <mxPoint x="2290" y="280" as="sourcePoint" />
            <mxPoint x="2000" y="320" as="targetPoint" />
          </mxGeometry>
        </mxCell>
        <mxCell id="69vFRkAeD7c9XC2ptMdu-116" value="" style="endArrow=none;html=1;rounded=0;strokeWidth=1;entryX=0.5;entryY=0;entryDx=0;entryDy=0;exitX=0.5;exitY=1;exitDx=0;exitDy=0;fontColor=#000000;" parent="1" source="69vFRkAeD7c9XC2ptMdu-7" target="69vFRkAeD7c9XC2ptMdu-42" edge="1">
          <mxGeometry width="50" height="50" relative="1" as="geometry">
            <mxPoint x="2300" y="290" as="sourcePoint" />
            <mxPoint x="2128" y="440" as="targetPoint" />
          </mxGeometry>
        </mxCell>
        <mxCell id="69vFRkAeD7c9XC2ptMdu-117" value="" style="endArrow=none;html=1;rounded=0;strokeWidth=1;entryX=0.5;entryY=0;entryDx=0;entryDy=0;exitX=0.5;exitY=1;exitDx=0;exitDy=0;fontColor=#000000;" parent="1" source="69vFRkAeD7c9XC2ptMdu-7" target="69vFRkAeD7c9XC2ptMdu-44" edge="1">
          <mxGeometry width="50" height="50" relative="1" as="geometry">
            <mxPoint x="2310" y="300" as="sourcePoint" />
            <mxPoint x="2138" y="450" as="targetPoint" />
          </mxGeometry>
        </mxCell>
        <mxCell id="69vFRkAeD7c9XC2ptMdu-118" value="" style="endArrow=none;html=1;rounded=0;strokeWidth=1;entryX=0.5;entryY=0;entryDx=0;entryDy=0;exitX=0.5;exitY=1;exitDx=0;exitDy=0;fontColor=#000000;" parent="1" source="69vFRkAeD7c9XC2ptMdu-7" target="69vFRkAeD7c9XC2ptMdu-46" edge="1">
          <mxGeometry width="50" height="50" relative="1" as="geometry">
            <mxPoint x="2320" y="310" as="sourcePoint" />
            <mxPoint x="2148" y="460" as="targetPoint" />
          </mxGeometry>
        </mxCell>
        <mxCell id="69vFRkAeD7c9XC2ptMdu-119" value="" style="endArrow=none;html=1;rounded=0;strokeWidth=1;entryX=0.5;entryY=0;entryDx=0;entryDy=0;exitX=0.5;exitY=1;exitDx=0;exitDy=0;fontColor=#000000;" parent="1" source="69vFRkAeD7c9XC2ptMdu-40" target="69vFRkAeD7c9XC2ptMdu-41" edge="1">
          <mxGeometry width="50" height="50" relative="1" as="geometry">
            <mxPoint x="2300" y="290" as="sourcePoint" />
            <mxPoint x="2468" y="440" as="targetPoint" />
          </mxGeometry>
        </mxCell>
        <mxCell id="69vFRkAeD7c9XC2ptMdu-120" value="" style="endArrow=none;html=1;rounded=0;strokeWidth=1;entryX=0.5;entryY=0;entryDx=0;entryDy=0;exitX=0.5;exitY=1;exitDx=0;exitDy=0;fontColor=#000000;" parent="1" source="69vFRkAeD7c9XC2ptMdu-42" target="69vFRkAeD7c9XC2ptMdu-43" edge="1">
          <mxGeometry width="50" height="50" relative="1" as="geometry">
            <mxPoint x="2128" y="500" as="sourcePoint" />
            <mxPoint x="2128" y="570" as="targetPoint" />
          </mxGeometry>
        </mxCell>
        <mxCell id="69vFRkAeD7c9XC2ptMdu-121" value="" style="endArrow=none;html=1;rounded=0;strokeWidth=1;entryX=0.5;entryY=0;entryDx=0;entryDy=0;exitX=0.5;exitY=1;exitDx=0;exitDy=0;fontColor=#000000;" parent="1" source="69vFRkAeD7c9XC2ptMdu-44" target="69vFRkAeD7c9XC2ptMdu-45" edge="1">
          <mxGeometry width="50" height="50" relative="1" as="geometry">
            <mxPoint x="2138" y="510" as="sourcePoint" />
            <mxPoint x="2138" y="580" as="targetPoint" />
          </mxGeometry>
        </mxCell>
        <mxCell id="69vFRkAeD7c9XC2ptMdu-122" value="" style="endArrow=none;html=1;rounded=0;strokeWidth=1;entryX=0.5;entryY=0;entryDx=0;entryDy=0;exitX=0.5;exitY=1;exitDx=0;exitDy=0;fontColor=#000000;" parent="1" source="69vFRkAeD7c9XC2ptMdu-46" target="69vFRkAeD7c9XC2ptMdu-47" edge="1">
          <mxGeometry width="50" height="50" relative="1" as="geometry">
            <mxPoint x="2148" y="520" as="sourcePoint" />
            <mxPoint x="2148" y="590" as="targetPoint" />
          </mxGeometry>
        </mxCell>
        <mxCell id="69vFRkAeD7c9XC2ptMdu-123" value="" style="endArrow=none;html=1;rounded=0;entryX=0.5;entryY=0;entryDx=0;entryDy=0;strokeWidth=1;exitX=0.5;exitY=1;exitDx=0;exitDy=0;fontColor=#000000;" parent="1" source="69vFRkAeD7c9XC2ptMdu-1" target="69vFRkAeD7c9XC2ptMdu-2" edge="1">
          <mxGeometry width="50" height="50" relative="1" as="geometry">
            <mxPoint x="570" y="155" as="sourcePoint" />
            <mxPoint x="760" y="325" as="targetPoint" />
          </mxGeometry>
        </mxCell>
        <mxCell id="69vFRkAeD7c9XC2ptMdu-124" value="" style="endArrow=none;html=1;rounded=0;entryX=0.5;entryY=0;entryDx=0;entryDy=0;strokeWidth=1;exitX=1;exitY=1;exitDx=0;exitDy=0;fontColor=#000000;" parent="1" source="69vFRkAeD7c9XC2ptMdu-1" target="69vFRkAeD7c9XC2ptMdu-6" edge="1">
          <mxGeometry width="50" height="50" relative="1" as="geometry">
            <mxPoint x="420" y="300" as="sourcePoint" />
            <mxPoint x="610" y="470" as="targetPoint" />
          </mxGeometry>
        </mxCell>
        <mxCell id="69vFRkAeD7c9XC2ptMdu-125" value="" style="endArrow=none;html=1;rounded=0;entryX=0.5;entryY=0;entryDx=0;entryDy=0;strokeWidth=1;exitX=0;exitY=1;exitDx=0;exitDy=0;fontColor=#000000;" parent="1" source="69vFRkAeD7c9XC2ptMdu-1" target="69vFRkAeD7c9XC2ptMdu-5" edge="1">
          <mxGeometry width="50" height="50" relative="1" as="geometry">
            <mxPoint x="430" y="310" as="sourcePoint" />
            <mxPoint x="620" y="480" as="targetPoint" />
          </mxGeometry>
        </mxCell>
        <mxCell id="69vFRkAeD7c9XC2ptMdu-126" value="" style="endArrow=none;html=1;rounded=0;entryX=0.5;entryY=0;entryDx=0;entryDy=0;strokeWidth=1;exitX=1;exitY=1;exitDx=0;exitDy=0;fontColor=#000000;" parent="1" source="69vFRkAeD7c9XC2ptMdu-1" target="69vFRkAeD7c9XC2ptMdu-3" edge="1">
          <mxGeometry width="50" height="50" relative="1" as="geometry">
            <mxPoint x="440" y="320" as="sourcePoint" />
            <mxPoint x="630" y="490" as="targetPoint" />
          </mxGeometry>
        </mxCell>
        <mxCell id="69vFRkAeD7c9XC2ptMdu-127" value="" style="endArrow=none;html=1;rounded=0;entryX=0.5;entryY=0;entryDx=0;entryDy=0;strokeWidth=1;exitX=1;exitY=0.5;exitDx=0;exitDy=0;fontColor=#000000;" parent="1" source="69vFRkAeD7c9XC2ptMdu-1" target="69vFRkAeD7c9XC2ptMdu-7" edge="1">
          <mxGeometry width="50" height="50" relative="1" as="geometry">
            <mxPoint x="450" y="330" as="sourcePoint" />
            <mxPoint x="640" y="500" as="targetPoint" />
          </mxGeometry>
        </mxCell>
        <mxCell id="69vFRkAeD7c9XC2ptMdu-128" value="" style="endArrow=none;html=1;rounded=0;entryX=0.5;entryY=0;entryDx=0;entryDy=0;strokeWidth=1;exitX=0;exitY=1;exitDx=0;exitDy=0;fontColor=#000000;" parent="1" source="69vFRkAeD7c9XC2ptMdu-1" target="69vFRkAeD7c9XC2ptMdu-4" edge="1">
          <mxGeometry width="50" height="50" relative="1" as="geometry">
            <mxPoint x="410" y="120" as="sourcePoint" />
            <mxPoint x="-160" y="220" as="targetPoint" />
          </mxGeometry>
        </mxCell>
        <mxCell id="69vFRkAeD7c9XC2ptMdu-129" value="" style="endArrow=none;html=1;rounded=0;entryX=0.5;entryY=0;entryDx=0;entryDy=0;strokeWidth=1;exitX=0;exitY=0.5;exitDx=0;exitDy=0;fontColor=#000000;" parent="1" source="69vFRkAeD7c9XC2ptMdu-1" target="69vFRkAeD7c9XC2ptMdu-8" edge="1">
          <mxGeometry width="50" height="50" relative="1" as="geometry">
            <mxPoint x="420" y="130" as="sourcePoint" />
            <mxPoint x="-150" y="230" as="targetPoint" />
          </mxGeometry>
        </mxCell>
        <mxCell id="69vFRkAeD7c9XC2ptMdu-132" style="edgeStyle=elbowEdgeStyle;rounded=0;orthogonalLoop=1;jettySize=auto;html=1;exitX=0.5;exitY=1;exitDx=0;exitDy=0;entryX=1;entryY=1;entryDx=0;entryDy=0;elbow=vertical;dashed=1;fontColor=#000000;" parent="1" source="69vFRkAeD7c9XC2ptMdu-15" target="69vFRkAeD7c9XC2ptMdu-10" edge="1">
          <mxGeometry relative="1" as="geometry">
            <mxPoint x="-1070" y="360" as="sourcePoint" />
            <mxPoint x="-423" y="338" as="targetPoint" />
            <Array as="points">
              <mxPoint x="-330" y="720" />
            </Array>
          </mxGeometry>
        </mxCell>
        <mxCell id="69vFRkAeD7c9XC2ptMdu-133" style="edgeStyle=elbowEdgeStyle;rounded=0;orthogonalLoop=1;jettySize=auto;html=1;exitX=0.5;exitY=1;exitDx=0;exitDy=0;entryX=0;entryY=1;entryDx=0;entryDy=0;elbow=vertical;dashed=1;fontColor=#000000;" parent="1" source="69vFRkAeD7c9XC2ptMdu-14" target="69vFRkAeD7c9XC2ptMdu-9" edge="1">
          <mxGeometry relative="1" as="geometry">
            <mxPoint x="-250" y="350" as="sourcePoint" />
            <mxPoint x="-383" y="338" as="targetPoint" />
            <Array as="points">
              <mxPoint y="720" />
            </Array>
          </mxGeometry>
        </mxCell>
        <mxCell id="69vFRkAeD7c9XC2ptMdu-134" style="edgeStyle=elbowEdgeStyle;rounded=0;orthogonalLoop=1;jettySize=auto;html=1;exitX=0.5;exitY=1;exitDx=0;exitDy=0;entryX=1;entryY=1;entryDx=0;entryDy=0;elbow=vertical;dashed=1;fontColor=#000000;" parent="1" source="69vFRkAeD7c9XC2ptMdu-12" target="69vFRkAeD7c9XC2ptMdu-9" edge="1">
          <mxGeometry relative="1" as="geometry">
            <mxPoint x="-70" y="350" as="sourcePoint" />
            <mxPoint x="60" y="338" as="targetPoint" />
            <Array as="points">
              <mxPoint x="380" y="720" />
            </Array>
          </mxGeometry>
        </mxCell>
        <mxCell id="69vFRkAeD7c9XC2ptMdu-135" style="edgeStyle=elbowEdgeStyle;rounded=0;orthogonalLoop=1;jettySize=auto;html=1;exitX=0.5;exitY=1;exitDx=0;exitDy=0;entryX=0.5;entryY=1;entryDx=0;entryDy=0;elbow=vertical;dashed=1;fontColor=#000000;" parent="1" source="69vFRkAeD7c9XC2ptMdu-13" target="69vFRkAeD7c9XC2ptMdu-16" edge="1">
          <mxGeometry relative="1" as="geometry">
            <mxPoint x="800" y="360" as="sourcePoint" />
            <mxPoint x="100" y="338" as="targetPoint" />
            <Array as="points">
              <mxPoint x="1170" y="720" />
            </Array>
          </mxGeometry>
        </mxCell>
        <mxCell id="69vFRkAeD7c9XC2ptMdu-136" style="edgeStyle=elbowEdgeStyle;rounded=0;orthogonalLoop=1;jettySize=auto;html=1;exitX=0.5;exitY=1;exitDx=0;exitDy=0;entryX=0.5;entryY=1;entryDx=0;entryDy=0;elbow=vertical;dashed=1;fontColor=#000000;" parent="1" source="69vFRkAeD7c9XC2ptMdu-18" target="69vFRkAeD7c9XC2ptMdu-9" edge="1">
          <mxGeometry relative="1" as="geometry">
            <mxPoint x="1040" y="360" as="sourcePoint" />
            <mxPoint x="1330" y="360" as="targetPoint" />
            <Array as="points">
              <mxPoint x="1020" y="800" />
            </Array>
          </mxGeometry>
        </mxCell>
      </root>
    </mxGraphModel>
  </diagram>
</mxfile>
